<?xml version="1.0" standalone="no"?>
<!DOCTYPE svg PUBLIC "-//W3C//DTD SVG 20010904//EN"
 "http://www.w3.org/TR/2001/REC-SVG-20010904/DTD/svg10.dtd">
<svg version="1.0" xmlns="http://www.w3.org/2000/svg"
 width="500.000000pt" height="500.000000pt" viewBox="0 0 500.000000 500.000000"
 preserveAspectRatio="xMidYMid meet">

<g transform="translate(0.000000,500.000000) scale(0.100000,-0.100000)"
fill="#000000" stroke="none">
<path d="M2406 4879 c-57 -13 -74 -33 -78 -88 -3 -45 -4 -46 -38 -49 -89 -7
-252 -36 -349 -63 -204 -58 -375 -155 -524 -298 -176 -170 -272 -333 -322
-548 -19 -80 -38 -240 -31 -252 3 -5 46 2 98 15 96 25 200 35 583 54 110 6
234 14 275 20 96 11 767 12 925 0 66 -5 253 -14 415 -20 162 -5 360 -15 439
-20 164 -12 163 -12 154 60 -32 265 -134 478 -313 659 -193 194 -425 316 -708
371 -57 11 -130 20 -162 20 l-60 0 0 44 c0 55 -23 84 -75 96 -50 12 -177 11
-229 -1z m449 -803 c114 -26 194 -56 210 -79 19 -27 19 -87 1 -112 -13 -18
-16 -18 -41 -5 -23 13 -96 15 -434 15 -223 0 -447 -4 -497 -9 l-91 -9 -6 33
c-21 104 9 132 187 171 69 16 119 18 341 15 191 -3 278 -8 330 -20z"/>
<path d="M2075 3540 c-49 -4 -146 -8 -215 -9 -168 -1 -506 -28 -603 -47 -43
-8 -100 -23 -125 -32 l-47 -18 3 -109 c1 -61 5 -172 8 -247 l6 -138 -32 0
c-99 0 -208 -85 -248 -193 -29 -76 -30 -218 -3 -305 24 -78 80 -177 126 -225
43 -44 112 -90 124 -83 5 3 14 27 21 53 6 26 16 53 22 61 8 9 -3 27 -46 72
-80 83 -99 131 -104 257 -4 91 -2 105 19 142 27 49 77 76 124 67 18 -4 38 -12
44 -20 7 -8 13 -113 17 -287 6 -294 7 -290 -51 -552 -43 -200 -44 -500 -2
-622 14 -39 15 -40 68 -43 l54 -3 1 -77 c1 -88 21 -157 65 -227 16 -26 29 -51
27 -55 -4 -12 -189 -144 -283 -203 -44 -28 -165 -94 -269 -149 -216 -112 -256
-139 -256 -172 0 -34 65 -89 93 -80 12 4 121 55 242 114 249 122 434 239 525
331 34 34 65 58 69 53 4 -5 14 -36 21 -69 16 -75 31 -106 70 -139 22 -18 43
-26 70 -26 37 0 38 0 45 -47 9 -59 40 -89 190 -186 197 -127 412 -196 637
-205 220 -8 359 25 593 143 141 72 237 135 268 177 11 15 22 49 25 78 l5 52
32 -5 c68 -11 136 69 154 182 4 28 10 54 13 56 3 3 34 -23 69 -57 36 -35 106
-92 156 -127 94 -66 585 -330 615 -331 20 0 66 53 74 86 11 41 6 44 -304 208
-211 111 -302 173 -402 270 l-81 79 15 31 c41 88 59 148 65 221 l6 80 43 6
c23 3 49 12 58 20 8 8 22 53 30 100 18 94 15 375 -5 484 -52 277 -61 373 -61
639 l0 263 38 7 c68 11 90 7 125 -24 56 -49 71 -141 41 -255 -18 -70 -47 -123
-102 -185 -28 -32 -38 -50 -32 -60 4 -8 16 -39 25 -67 10 -29 20 -53 24 -53
31 0 116 92 175 188 61 102 79 157 79 257 1 107 -19 182 -66 251 -43 62 -122
106 -192 106 l-48 0 7 273 c6 256 5 274 -11 279 -61 18 -503 45 -503 30 0 -5
16 -65 35 -133 19 -68 46 -199 59 -290 14 -91 34 -196 45 -232 25 -79 84 -173
134 -214 l37 -30 -7 -75 c-7 -68 -10 -75 -33 -80 -24 -6 -25 -11 -31 -90 -9
-115 -23 -186 -70 -346 -65 -224 -119 -320 -223 -396 -59 -43 -92 -38 -253 36
-237 110 -244 111 -633 108 -246 -3 -318 -17 -537 -111 -167 -72 -208 -77
-269 -33 -131 95 -207 263 -274 602 -11 56 -23 132 -26 170 -5 53 -11 69 -24
73 -18 4 -30 61 -30 138 0 29 5 39 21 44 28 9 103 114 130 183 19 48 23 81 27
217 4 153 3 163 -22 229 -25 66 -35 156 -17 156 24 0 67 -51 99 -117 19 -41
55 -96 78 -121 233 -258 891 -217 1288 81 65 49 196 198 196 223 0 6 -25 14
-57 18 -93 10 -879 15 -978 6z m643 -1981 c59 -6 142 -25 212 -48 l115 -37 -3
-74 c-3 -95 -15 -137 -51 -188 -37 -50 -157 -113 -228 -119 -44 -4 -52 -2 -92
33 -41 35 -51 39 -113 42 -105 6 -151 -4 -200 -45 -39 -32 -47 -35 -88 -30
-102 13 -233 99 -263 174 -20 51 -30 135 -22 174 8 37 46 56 171 89 147 38
377 50 562 29z"/>
<path d="M2182 1373 l3 -68 334 0 335 0 7 29 c5 16 5 45 1 65 l-8 36 -337 3
-338 2 3 -67z"/>
<path d="M4045 3266 c0 -112 2 -206 5 -208 3 -3 51 -19 107 -37 136 -42 251
-56 318 -39 81 21 75 37 -67 163 -68 60 -173 158 -234 217 -60 60 -114 108
-120 108 -5 0 -9 -82 -9 -204z"/>
</g>
</svg>
